# xmcd CD database file
#
# Track frame offsets:
#	150
#	17068
#	29993
#	53136
#	67492
#	90551
#	110674
#	125476
#	153410
#
# Disc length: 2263 seconds
#
# Revision: 0
# Processed by: cddbd v1.5.2PL0 Copyright (c) Steve Scherf et al.
# Submitted via: CDex 1.70beta2
#
DISCID=8208d509
DTITLE=Deadwood - Halfway There
DYEAR=2001
DGENRE=Blues
TTITLE0=Louise
TTITLE1=I turn the wheel  (and my baby pumps the gas)
TTITLE2=halfway there
TTITLE3=hackin at it
TTITLE4=outside lookin in
TTITLE5=cadillac assembly line
TTITLE6=I may be wrong
TTITLE7=the high sherriff of Calhoun parrish
TTITLE8=she done gone
EXTD=YEAR: 2001
EXTT0=
EXTT1=
EXTT2=
EXTT3=
EXTT4=
EXTT5=
EXTT6=
EXTT7=
EXTT8=
PLAYORDER=
